<?xml version="1.0" encoding="UTF-8" standalone="no"?>
<!-- Created with Inkscape (http://www.inkscape.org/) -->

<svg
   xmlns:dc="http://purl.org/dc/elements/1.1/"
   xmlns:cc="http://creativecommons.org/ns#"
   xmlns:rdf="http://www.w3.org/1999/02/22-rdf-syntax-ns#"
   xmlns:svg="http://www.w3.org/2000/svg"
   xmlns="http://www.w3.org/2000/svg"
   xmlns:xlink="http://www.w3.org/1999/xlink"
   xmlns:sodipodi="http://sodipodi.sourceforge.net/DTD/sodipodi-0.dtd"
   xmlns:inkscape="http://www.inkscape.org/namespaces/inkscape"
   id="svg2"
   version="1.1"
   inkscape:version="0.92.2 5c3e80d, 2017-08-06"
   width="363.13715"
   height="363.13715"
   sodipodi:docname="icon.svg"
   viewBox="-0.5 0 363.13714 363.13715">
  <metadata
     id="metadata8">
    <rdf:RDF>
      <cc:Work
         rdf:about="">
        <dc:format>image/svg+xml</dc:format>
        <dc:type
           rdf:resource="http://purl.org/dc/dcmitype/StillImage" />
        <dc:title></dc:title>
      </cc:Work>
    </rdf:RDF>
  </metadata>
  <defs
     id="defs6">
    <linearGradient
       inkscape:collect="always"
       id="linearGradient3876">
      <stop
         style="stop-color:#e95420;stop-opacity:1;"
         offset="0"
         id="stop3878" />
      <stop
         id="stop3884"
         offset="0.80000001"
         style="stop-color:#e95420;stop-opacity:0.8129771" />
      <stop
         style="stop-color:#e95420;stop-opacity:0.27099237"
         offset="1"
         id="stop3880" />
    </linearGradient>
    <linearGradient
       id="linearGradient3780">
      <stop
         style="stop-color:#e95420;stop-opacity:1;"
         offset="0"
         id="stop3782" />
      <stop
         id="stop3788"
         offset="0.85661513"
         style="stop-color:#e95420;stop-opacity:0.83193278" />
      <stop
         style="stop-color:#e95420;stop-opacity:0.06302521"
         offset="1"
         id="stop3784" />
    </linearGradient>
    <radialGradient
       inkscape:collect="always"
       xlink:href="#linearGradient3876"
       id="radialGradient3882"
       cx="2280.1091"
       cy="1433.5116"
       fx="2280.1091"
       fy="1433.5116"
       r="230.05992"
       gradientUnits="userSpaceOnUse"
       gradientTransform="matrix(0.90033831,1.9296444e-8,-3.2682962e-8,0.89935691,227.23953,144.27298)" />
  </defs>
  <sodipodi:namedview
     pagecolor="#ffffff"
     bordercolor="#666666"
     borderopacity="1"
     objecttolerance="10"
     gridtolerance="10"
     guidetolerance="10"
     inkscape:pageopacity="0"
     inkscape:pageshadow="2"
     inkscape:window-width="1676"
     inkscape:window-height="1005"
     id="namedview4"
     showgrid="false"
     inkscape:zoom="0.45091868"
     inkscape:cx="-89.520343"
     inkscape:cy="55.79365"
     inkscape:window-x="4"
     inkscape:window-y="1"
     inkscape:window-maximized="1"
     inkscape:current-layer="svg2"
     fit-margin-top="0"
     fit-margin-left="0"
     fit-margin-right="0"
     fit-margin-bottom="0"
     viewbox-x="-0.5" />
  <path
     id="path3891"
     style="color:#000000;font-style:normal;font-variant:normal;font-weight:normal;font-stretch:normal;font-size:medium;line-height:normal;font-family:Sans;-inkscape-font-specification:Sans;text-indent:0;text-align:start;text-decoration:none;text-decoration-line:none;letter-spacing:normal;word-spacing:normal;text-transform:none;writing-mode:lr-tb;direction:ltr;baseline-shift:baseline;text-anchor:start;display:inline;overflow:visible;visibility:visible;fill:#ffffff;fill-opacity:1;fill-rule:nonzero;stroke:none;stroke-width:9.19999981;stroke-miterlimit:4;stroke-dasharray:none;marker:none;enable-background:accumulate"
     d="m 87.96885,127.37788 c 0.004,0.0214 -0.004,0.006 0,0.0313 0.0799,0.50246 0.0661,1.49502 -0.0937,2.6875 -0.31977,2.38496 -1.15402,5.60169 -1.90625,8.6875 -0.69859,2.86577 -1.32736,5.50165 -1.28125,8 -2.97197,19.35929 -3.45068,39.10713 -0.1875,58.65625 0.009,0.0525 0.0224,0.10374 0.0313,0.15625 -0.34848,18.71114 8.68722,35.25486 18.21875,49.84375 0.56273,1.91485 0.849,3.41595 0.84375,4.3125 -0.006,0.94158 -0.23305,1.17679 -0.1875,1.125 0.0455,-0.0518 0.20421,-0.0314 -0.15625,-0.0313 -0.36046,1.9e-4 -1.10394,-0.14935 -2,-0.53125 -3.58423,-1.52762 -9.01437,-6.85137 -10.0625,-9.78125 l -0.125,-0.40625 -0.25,-0.34375 c -4.38351,-5.78918 -10.25865,-10.53617 -14.8125,-15.59375 -4.53163,-5.03289 -7.69826,-10.09399 -7.625,-16.71875 0.002,-0.0308 -0.001,-0.0629 0,-0.0937 0.31126,-6.67914 -1.75577,-13.79786 -3.5,-21 -1.75228,-7.2354 -3.18896,-14.47447 -2.25,-20.8125 2.55888,-17.27253 5.51947,-35.83691 20.59375,-45.78125 1.95476,-1.27326 3.40245,-1.98032 4.28125,-2.25 0.62772,-0.19263 0.5084,-0.13777 0.46875,-0.15625 z m 42.9375,-46.749989 c 1.70068,-0.10134 3.41321,0.16445 5.15625,0.875 13.94239,5.68359 20.18979,23.393709 26,38.656239 7.46498,19.60938 8.28018,41.73947 8.03125,63.25 -0.27781,24.00496 -2.06922,48.30623 -10.65625,70.59375 -3.52403,6.39239 -7.02277,15.15529 -11.625,21.53125 -2.33858,3.23988 -4.91402,5.80006 -7.6875,7.1875 -2.63218,1.31676 -5.45823,1.67232 -9.09375,0.65625 -18.8667,-17.01752 -25.04882,-43.21624 -32.15625,-67.8125 -0.002,-0.0102 0.002,-0.021 0,-0.0313 -3.02181,-19.692 -1.59375,-40.08932 -2.4375,-60.5625 3.9e-4,-0.0105 -3.9e-4,-0.0207 0,-0.0313 -0.003,-0.0628 0.003,-0.12471 0,-0.1875 0.46108,-12.50456 0.47503,-24.90646 4.5625,-36.15625 l 0.0313,-0.125 0.0313,-0.125 c 2.27051,-8.72735 7.63576,-19.895329 14.25,-27.718739 3.30712,-3.91171 6.91548,-6.96571 10.4375,-8.59375 1.76101,-0.81402 3.45557,-1.30491 5.15625,-1.40625 z m -11.84375,-16.6875 0.25,0.53125 c -5.67306,1.02472 -11.19679,3.69035 -15.71875,8.53125 -14.94947,15.8089 -23.38246,34.956779 -37.03125,47.843739 l -0.0313,0.0313 -0.0313,0.0625 -0.46875,0.46875 -0.59375,0.5625 -0.28125,0.78125 -0.21875,0.625 c -2.64759,7.64689 -6.20701,9.50783 -12.53125,11.0625 -6.059998,1.48971 -14.321716,1.40601 -22.6875,2.65625 -0.04223,0.006 -0.08276,-0.006 -0.125,0 H 29.375 l -0.09375,0.0313 -0.25,0.0313 c -7.337183,1.42433 -12.925766,4.7169 -16.375,9.4375 -3.417331,4.67694 -4.488186,10.0826 -4.875,15.125 -0.766679,9.99422 0.511406,20.06862 -1.53125,26.09375 -0.0095,0.0279 -0.02165,0.0661 -0.03125,0.0937 l -0.28125,0.71875 -0.4375,1.125 0.375,1.1875 0.25,0.8125 H 6.09375 c 1.103066,3.80037 1.491489,11.97234 3.03125,19.75 0.771956,3.89932 1.898224,7.92315 4.09375,11.5625 1.763851,2.9238 4.37164,5.4586 7.6875,7.15625 v 0.0313 L 23,231.19053 c 0.750712,0.34841 0.831989,0.37112 0.21875,0.0937 l 0.15625,0.0625 0.03125,0.0313 0.1875,0.0625 c -0.434178,-0.13957 -0.381958,-0.113 0.1875,0.0625 v -0.0313 c 9.024775,3.83456 18.162636,2.19011 24.8125,1.9375 3.439295,-0.13064 6.30297,0.0862 8.21875,0.75 1.99608,0.69156 3.19566,1.45981 4.71875,4.03125 0.01,0.0162 0.0216,0.0149 0.0313,0.0313 7.55457,16.55197 21.51041,26.61989 31.09375,37.8125 l 0.0937,0.0937 0.125,0.0937 0.15625,0.15625 0.15625,0.15625 0.0937,0.125 0.125,0.125 c 5.13305,4.26586 11.13563,11.2301 18.28125,17.03125 7.17596,5.82578 16.38225,10.75241 27.21875,8.84375 h 0.0313 l 0.34385,-0.0625 0.4375,-0.0625 0.40625,-0.1875 0.34375,-0.15625 c 18.63551,-8.49047 31.02481,-27.75016 34.09375,-47.125 5.98561,-7.82824 6.85407,-16.88087 6.84375,-24.71875 -0.011,-8.37063 -0.40848,-15.7889 1.9375,-21.4375 l 0.0625,-0.0937 v -0.0625 l 0.15625,-0.4375 0.1875,-0.46875 0.0313,-0.5 0.0313,-0.40625 v -0.0313 c 1.87628,-25.01592 -0.66634,-49.89687 -3.03125,-74.0625 l -0.0313,-0.1875 -0.0313,-0.1875 v -0.0313 l -0.0313,-0.125 v -0.0625 l -0.0313,-0.0937 -0.0313,-0.125 C 176.65134,114.75179 172.10589,94.853791 158.2812,79.940391 v -0.21875 l -0.96875,-0.90625 -0.0313,-0.0313 -0.0937,-0.0937 c -6.46719,-6.31127 -15.19677,-11.79256 -24.8125,-13.90625 -2.43597,-0.53547 -4.96382,-0.80172 -7.46875,-0.8125 l -5.84375,-0.0313 z M 37.78135,150.69038 c 1.0379,-0.0317 2.084986,0.0469 3.125,0.25 4.160056,0.81249 8.021376,3.75539 10.4375,8.6875 l 0.5,1 -0.34375,1.0625 c -2.169594,6.72816 -1.161371,13.69505 0.03125,21.125 1.192621,7.42995 2.58383,15.30989 0.15625,23.40625 l -0.03125,0.0625 v 0.0625 c -3.63992,10.27862 -12.693442,14.23245 -20.375,12.21875 -7.681558,-2.0137 -13.988073,-9.66595 -13.34375,-20.09375 -1.492906,-8.26286 1.766696,-15.57946 2.375,-22.0625 -3.120919,-9.26443 1.695997,-18.36541 8.625,-22.8125 2.674573,-1.71656 5.730051,-2.81125 8.84375,-2.90625 z m 75.7864,50.16824 c 1.35982,-16.37704 0.41356,-33.81862 2.61697,-50.50195 2.04518,-12.68503 -4.30071,-36.49424 11.31191,-37.92002 19.0603,-1.74063 23.95393,25.26143 25.07521,41.65854 1.01954,20.17716 7.49472,41.03382 -0.0592,60.68977 -0.86545,13.15794 -18.12626,38.54394 -30.63597,24.4429 -6.40429,-11.28619 -4.126,-29.52923 -8.30897,-38.36924 z m 181.7761,-200.85572923 0.1875,4.53125003 -4.1875,-1.25 -0.5625,1.9375 -0.25,0.8125 0.0625,0.8125 c 0.50241,7.2436892 5.17682,15.3382062 10.125,24.9375002 4.91802,9.5408 10.30298,19.90811 12.875,27.96875 10.18816,41.896359 18.93604,84.332879 22.25,127.124989 8e-4,0.0103 -8e-4,0.0209 0,0.0313 -0.0775,15.12855 0.19774,30.25703 -2.625,44.09375 l -0.0625,0.1875 v 0.1875 c -2.96591,24.94788 -6.08134,49.92822 -14.90625,72.90625 -0.0201,0.0524 -0.0423,0.10389 -0.0625,0.15625 -7.04637,16.38049 -15.70577,34.08607 -15.71875,53.625 v 3.40625 l 3.28125,1 c 5.03466,1.51588 10.14871,0.34541 13.5,-2.53125 3.35129,-2.87666 5.23133,-6.82411 6.65625,-10.9375 2.81933,-8.13872 3.78836,-17.62962 4.90625,-22.59375 9.24661,-22.49918 13.2158,-46.02577 21.15625,-67.59375 l 0.34375,-0.90625 -0.0625,-0.9375 c -0.92362,-18.11101 4.87775,-38.04038 2.8125,-59.0625 h 0.0313 c -0.99462,-15.74582 3.56869,-32.90463 -3.03125,-50.8125 2.68269,-9.48786 2.15101,-20.35001 -4.59375,-31.6875 -8.40229,-24.560909 -12.75942,-50.793749 -21,-76.437489 -0.5082,-10.47344 -6.51312,-19.791735 -12.75,-26.71875 -3.19955,-3.5535952 -6.49586,-6.4820282 -9.4375,-8.5937502 -1.03264,-0.741303 -1.97847,-1.240599 -2.9375,-1.78125 l 0.5625,-1.87500003 h -6.15625 v 0.03125 c -0.15793,0.0064 -0.23608,-0.04703 -0.40625,-0.03125 z M 248.0626,37.284141 l 3.90625,9.21875 c 6.74581,16.0224 14.23534,31.85106 17.9375,48.59375 0.002,0.0101 -0.002,0.0212 0,0.0313 3.45398,15.993079 9.08584,31.174189 8.65625,46.218739 l -0.0313,0.25 0.0313,0.25 c 1.522,18.70717 5.1259,36.10875 2.6875,53.46875 l -0.15625,1.125 0.375,1.0625 c 2.06294,5.75637 1.27878,12.1333 -0.0625,19.4375 -1.30002,7.07949 -3.05371,14.893 -1.78125,23.21875 0.003,0.021 -0.003,0.0415 0,0.0625 0.0188,16.00749 -7.3121,32.8514 -10.5625,50.90625 -3.02042,2.44817 -4.99287,5.08701 -5.25,8.40625 -0.2978,3.8442 2.71343,7.11736 5.6875,8.125 5.86626,1.98755 13.57363,-1.37306 15.8125,-9.375 h 0.0313 c 0.0238,-0.0852 0.04,-0.16376 0.0625,-0.25 0.007,-0.0218 0.024,-0.0407 0.0313,-0.0625 6.43823,-19.32568 8.70894,-39.39067 11.8125,-58.6875 l 0.0625,-0.40625 v -0.375 c -0.2147,-17.99765 3.62071,-36.76512 1.625,-56.3125 -0.0236,-0.23099 -0.006,-0.45629 -0.0313,-0.6875 0.49424,-17.39926 -3.49563,-33.89682 -4.1875,-49.84375 l -0.0313,-0.65625 -0.21875,-0.625 c -4.71196,-13.68809 -1.85089,-28.95175 -10.90625,-45.093739 -2.84071,-6.18501 -4.61802,-15.44115 -7.75,-24.15625 -3.13198,-8.7151 -8.15928,-17.55298 -18.1875,-20.78125 l -9.5625,-3.0625 z m -31.21875,37.6875 1.09375,5.5 c 3.09998,15.48493 8.36822,32.146459 16.34375,46.687489 8.61945,26.83237 3.21391,56.57467 5.40625,86.5 -0.10755,15.65599 -3.49079,32.20392 -10.625,45.625 -1.61244,1.07848 -2.99222,2.15619 -4.03125,3.40625 -1.31787,1.58554 -2.34738,3.70224 -2.0625,6.09375 0.28488,2.39151 1.91959,4.21317 3.46875,5.15625 1.54916,0.94308 3.14669,1.35132 4.78125,1.53125 3.26912,0.35987 6.84265,-0.20639 10.15625,-2.03125 3.17243,-1.74711 6.03389,-5.10722 6.71875,-9.5 h 0.0313 c 0.0432,-0.18588 0.0512,-0.37657 0.0937,-0.5625 4.38857,-19.16173 5.55466,-38.59115 8.875,-57.125 0.002,-0.0101 -0.002,-0.0212 0,-0.0313 3.00598,-16.26967 -1.03837,-30.09061 0,-44.5 l 0.0313,-0.5625 -0.0937,-0.53125 c -2.45998,-14.82026 -1.18316,-31.38946 -9.75,-47.15625 -2.60328,-5.07014 -4.55206,-13.01902 -7.5,-20.499989 -2.94794,-7.48098 -7.35113,-15.19696 -15.96875,-17.8125 l -0.65625,-0.1875 h -0.6875 -5.625 z m 58.75,222.718739 c -0.15016,0.199 -0.30758,0.2922 -0.46875,0.4375 0.19088,-0.16399 0.23701,-0.26015 0.46875,-0.4375 z"
     inkscape:connector-curvature="0" />
</svg>
